{"title":"Flatliners (1990) Julia Roberts+Kiefer Sutherland (Opt.MULTISUBS","uid":4807721,"size":740448221,"categoryP":"video","categoryS":"movies","magnet":"?xt=urn:btih:51b9e055b736ee72e9c79fcf861c0207bd581af0&amp;dn=Flatliners+%281990%29+Julia+Roberts%2BKiefer+Sutherland+%28Opt.MULTISUBS&amp;tr=udp%3A%2F%2Ftracker.openbittorrent.com%3A80&amp;tr=udp%3A%2F%2Fopen.demonii.com%3A1337&amp;tr=udp%3A%2F%2Ftracker.coppersurfer.tk%3A6969&amp;tr=udp%3A%2F%2Fexodus.desync.com%3A6969","seeders":2,"leechers":0,"uploader":"Kuthumi","files":-1,"time":1238256093,"description":"a.k.a. \nFlatliners\nflatliners.\n &lt;a href=&quot;\nhttp://www.imdb.com/title/tt0099582/&quot; rel=&quot;nofollow&quot; target=&quot;_NEW&quot;&gt;\nhttp://www.imdb.com/title/tt0099582/&lt;/a&gt;\n\nWith Kevin Bacon and William Baldwin.\n\nOptional subtitles in separate idx/sub files: (Work in Windows Media Player etc.): Czech, Danish, Dutch (srt format), English, Finnish, German, Greek, Hebrew, Hindi(!), Hungarian, Icelandic, Norwegian, Polish, Swedish, Turkish.\n\nClassic film about medical students bringing themselves near death when their experiments begin to go awry. This film is often understood as a horror movie. However, Near Death experiences are actually surprisingly common, and this has constituted a serious research field for decades. But to play with it is of course strongly discouraged.\n\nIf you are interested, you will find a lot of more information at http://www.iands.org/ - The International Association for Near-Death Studies, and on related sites.\n\nI could not find a 700 MiB rip with multisubs for this classic, so I made one for you by request.\n\nWidescreen DVDrip XviD 2-pass 704x288, great stereo sound AC3.\nBurn tested, runs well in both my standalone DivX players.\n\nMediaInfo analysis:\n\nFormat/Info                      : Audio Video Interleave\nFile size                        : 696 MiB\nDuration                         : 1h 49mn\nOveral bit rate                  : 888 Kbps\n\nVideo\nFormat                           : MPEG-4 Visual\nFormat profile                   : Streaming Video@L1\nFormat settings, BVOP            : Yes\nFormat settings, QPel            : No\nFormat settings, GMC             : No warppoints\nFormat settings, Matrix          : Default\nMuxing mode                      : Packet Bitstream\nCodec ID                         : XVID\nCodec ID/Hint                    : XviD\nDuration                         : 1h 49mn\nBit rate                         : 751 Kbps\nWidth                            : 704 pixels\nHeight                           : 288 pixels\nDisplay aspect ratio             : 2.444\nFrame rate                       : 25.000 fps\nResolution                       : 8 bits\nColorimetry                      : 4:2:0\nScan type                        : Progressive\nBits/(Pixel*Frame)               : 0.148\nStream size                      : 588 MiB\nWriting library                  : XviD 1.2.0.dev47 (UTC 2006-11-01)\n\nAudio\nFormat                           : MPEG Audio\nFormat version                   : Version 1\nFormat profile                   : Layer 3\nCodec ID                         : 55\nCodec ID/Hint                    : MP3\nDuration                         : 1h 49mn\nBit rate mode                    : Constant\nBit rate                         : 128 Kbps\nMinimum bit rate                 : 128 Kbps\nChannel(s)                       : 2 channels\nSampling rate                    : 48.0 KHz\nResolution                       : 16 bits\nStream size                      : 100 MiB\nWriting library                  : LAME3.97 \nEncoding settings                : CBR\n\nSource: PAL rental.","torrent":{"xt":"urn:btih:51b9e055b736ee72e9c79fcf861c0207bd581af0","amp;dn":"Flatliners+%281990%29+Julia+Roberts%2BKiefer+Sutherland+%28Opt.MULTISUBS","amp;tr":["udp%3A%2F%2Ftracker.openbittorrent.com%3A80","udp%3A%2F%2Fopen.demonii.com%3A1337","udp%3A%2F%2Ftracker.coppersurfer.tk%3A6969","udp%3A%2F%2Fexodus.desync.com%3A6969"],"infoHash":"51b9e055b736ee72e9c79fcf861c0207bd581af0","infoHashBuffer":{"type":"Buffer","data":[81,185,224,85,183,54,238,114,233,199,159,207,134,28,2,7,189,88,26,240]},"announce":[],"urlList":[]}}